# xmcd
#
# Track frame offsets: 
#        150
#        12527
#        23300
#        35312
#        46340
#        57717
#        71140
#        82737
#        93190
#        105462
#        116125
#        126235
#        138142
#        149797
#        161397
#        172690
#        183760
#        194080
#        203192
#        215572
#        227102
#
# Disc length: 3153 seconds
#
# Revision: 6
# Processed by: cddbd v1.5.2PL0 Copyright (c) Steve Scherf et al.
# Submitted via: ExactAudioCopyFreeDBPlugin 1.0
#
DISCID=230c4f15
DTITLE=Sam Cooke - The Man Who Invented Soul [box set]
DYEAR=2000
DGENRE=Soul
TTITLE0=You Send Me
TTITLE1=Summertime, Part 1
TTITLE2=For Sentimental Reasons
TTITLE3=Desire Me
TTITLE4=Lonely Island
TTITLE5=You Were Made for Me
TTITLE6=Win Your Love for Me
TTITLE7=Love You Most of All
TTITLE8=Everybody Loves to Cha Cha Cha
TTITLE9=No One Can Take Your Place
TTITLE10=Only Sixteen
TTITLE11=With You
TTITLE12=Crazy She Calls Me
TTITLE13=I Got a Right to Sing the Blues
TTITLE14=Comes Love
TTITLE15=Ain't Nobody's Business
TTITLE16=Little Things You Do
TTITLE17=There, I've Said It
TTITLE18=When I Fall in Love
TTITLE19=Let's Go Steady Again
TTITLE20=(What A) Wonderful World
EXTD=YEAR: 2000
EXTT0=
EXTT1=
EXTT2=
EXTT3=
EXTT4=
EXTT5=
EXTT6=
EXTT7=
EXTT8=
EXTT9=
EXTT10=
EXTT11=
EXTT12=
EXTT13=
EXTT14=
EXTT15=
EXTT16=
EXTT17=
EXTT18=
EXTT19=
EXTT20=
PLAYORDER=
